<svg width="36" height="22" viewBox="0 0 36 22" fill="none" xmlns="http://www.w3.org/2000/svg">
<path opacity="0.4" fill-rule="evenodd" clip-rule="evenodd" d="M33.0125 21.9574C32.4905 21.9651 31.9754 21.8426 31.5187 21.602L19.5685 15.3615V19.029C19.5674 20.0442 18.9976 20.9818 18.0734 21.489C17.1493 21.9961 16.0111 21.9959 15.0872 21.4882L1.47891 13.9257C0.590043 13.4308 0.0316681 12.5352 0.00130328 11.5556C-0.0290616 10.576 0.472865 9.65062 1.32953 9.10674L14.9378 0.478067C15.8537 -0.103435 17.0314 -0.158438 18.0027 0.334928C18.974 0.828295 19.5814 1.79006 19.5834 2.8378V7.24454C19.5834 8.02963 18.9147 8.66607 18.0897 8.66607C17.2647 8.66607 16.5959 8.02963 16.5959 7.24454V2.79516L2.97268 11.5091L16.581 19.0717V15.4183C16.5659 14.3955 17.1293 13.4438 18.0565 12.9262C18.9836 12.4086 20.1314 12.4049 21.0623 12.9164L33.0125 19.1569V3.8613L24.6623 7.47198C23.9115 7.7978 23.0254 7.48276 22.683 6.76833C22.3406 6.0539 22.6717 5.21062 23.4224 4.8848L31.7726 1.27412C32.6975 0.872656 33.7734 0.946284 34.6284 1.46955C35.4834 1.99282 36.0002 2.89391 36 3.8613V19.1569C36 20.7271 34.6624 22 33.0125 22V21.9574Z" fill="#0F1E36"/>
</svg>
