<svg width="28" height="23" viewBox="0 0 28 23" fill="none" xmlns="http://www.w3.org/2000/svg">
<path opacity="0.4" fill-rule="evenodd" clip-rule="evenodd" d="M23.6655 22.5069H21.4148C20.7933 22.5069 20.2895 22.0031 20.2895 21.3816C20.2895 20.7601 20.7933 20.2563 21.4148 20.2563H23.6655C24.287 20.2563 24.7908 19.7524 24.7908 19.1309V7.87743C24.7908 7.25592 24.287 6.75208 23.6655 6.75208H5.65994C5.03843 6.75208 4.53459 6.24825 4.53459 5.62674C4.53459 5.00522 5.03843 4.50139 5.65994 4.50139H23.6655C25.53 4.50139 27.0415 6.01289 27.0415 7.87743V19.1309C27.0415 20.9954 25.53 22.5069 23.6655 22.5069ZM7.91063 21.3816C7.91063 20.7601 7.4068 20.2563 6.78529 20.2563H3.40925C2.78773 20.2563 2.2839 19.7524 2.2839 19.1309V3.37604C2.2839 2.75453 2.78773 2.25069 3.40925 2.25069H10.3526C10.6518 2.24897 10.9393 2.3664 11.1516 2.57705L11.613 3.03844C12.0595 3.4208 12.7251 3.3951 13.1408 2.97943C13.5564 2.56376 13.5821 1.89819 13.1998 1.4517L12.7384 0.990306C12.1059 0.356994 11.2477 0.000787977 10.3526 0H3.40925C1.54471 0 0.0332031 1.51151 0.0332031 3.37604V19.1309C0.0332031 20.9954 1.54471 22.5069 3.40925 22.5069H6.78529C7.4068 22.5069 7.91063 22.0031 7.91063 21.3816ZM14.3357 22.1806L18.8371 17.6792C19.2194 17.2327 19.1937 16.5671 18.7781 16.1515C18.3624 15.7358 17.6968 15.7101 17.2503 16.0925L14.6733 18.6695V10.1281C14.6733 9.50661 14.1695 9.00278 13.5479 9.00278C12.9264 9.00278 12.4226 9.50661 12.4226 10.1281V21.3816C12.4199 21.8388 12.6941 22.2521 13.1164 22.4275C13.5386 22.6028 14.025 22.5052 14.3469 22.1806H14.3357ZM10.9598 18.8045C11.3962 18.3656 11.3962 17.6567 10.9598 17.2178L9.8345 16.0924C9.55948 15.7713 9.12765 15.6314 8.71656 15.7303C8.30547 15.8292 7.9845 16.1501 7.88561 16.5612C7.78673 16.9723 7.92661 17.4041 8.24776 17.6792L9.37311 18.8045C9.81204 19.2408 10.5209 19.2408 10.9598 18.8045Z" fill="#0F1E36"/>
</svg>
