<svg width="36" height="22" viewBox="0 0 36 22" fill="none" xmlns="http://www.w3.org/2000/svg">
<path opacity="0.4" fill-rule="evenodd" clip-rule="evenodd" d="M2.98754 0.0426473C3.50955 0.0348692 4.02457 0.157399 4.48132 0.398028L16.4315 6.63854L16.4315 2.971C16.4326 1.95579 17.0024 1.01817 17.9266 0.511021C18.8507 0.00387042 19.9889 0.00414899 20.9128 0.511752L34.5211 8.07428C35.41 8.56916 35.9683 9.4648 35.9987 10.4444C36.0291 11.424 35.5271 12.3494 34.6705 12.8933L21.0622 21.5219C20.1463 22.1034 18.9686 22.1584 17.9973 21.6651C17.026 21.1717 16.4186 20.2099 16.4166 19.1622L16.4166 14.7555C16.4166 13.9704 17.0853 13.3339 17.9103 13.3339C18.7353 13.3339 19.4041 13.9704 19.4041 14.7555L19.4041 19.2048L33.0273 10.4909L19.419 2.92835L19.419 6.58168C19.4341 7.60449 18.8707 8.55616 17.9435 9.07377C17.0164 9.59138 15.8686 9.59512 14.9377 9.08356L2.98754 2.84305L2.98754 18.1387L11.3377 14.528C12.0885 14.2022 12.9746 14.5172 13.317 15.2317C13.6594 15.9461 13.3283 16.7894 12.5776 17.1152L4.22737 20.7259C3.30249 21.1273 2.22656 21.0537 1.37156 20.5304C0.516552 20.0072 -0.000186667 19.1061 -3.47713e-06 18.1387L-2.13994e-06 2.84305C-2.00268e-06 1.27288 1.33757 7.84411e-07 2.98754 9.28656e-07L2.98754 0.0426473Z" fill="#0F1E36"/>
</svg>
