<svg width="23" height="25" viewBox="0 0 23 25" fill="none" xmlns="http://www.w3.org/2000/svg">
<path opacity="0.4" fill-rule="evenodd" clip-rule="evenodd" d="M19.573 19.9401C19.9785 20.3481 19.9785 21.007 19.573 21.415C15.5436 25.4538 9.08288 25.7061 4.75075 21.9939C0.418618 18.2817 -0.321899 11.8586 3.05185 7.25799C6.42559 2.65736 12.7742 1.43292 17.617 4.44884L17.4287 1.92798C17.3854 1.35029 17.8185 0.846851 18.3962 0.803524C18.9739 0.760197 19.4774 1.19338 19.5207 1.77108L19.8763 6.64545C19.906 7.07923 19.6641 7.48611 19.269 7.66743C18.8738 7.84875 18.4076 7.7667 18.0981 7.46133C15.5765 4.9389 11.7836 4.18399 8.48824 5.54866C5.19292 6.91333 3.04424 10.1288 3.04424 13.6955C3.04424 17.2622 5.19292 20.4777 8.48824 21.8423C11.7836 23.207 15.5765 22.4521 18.0981 19.9297C18.509 19.527 19.1679 19.5317 19.573 19.9401ZM20.3727 9.74161L21.9103 9.57425C22.4811 9.50858 22.892 8.99488 22.8308 8.42365C22.7651 7.8529 22.2514 7.44195 21.6802 7.50316L20.1426 7.67052C19.5649 7.7023 19.1223 8.19636 19.1541 8.77406C19.1859 9.35175 19.6799 9.7943 20.2576 9.76253L20.3727 9.74161Z" fill="#0F1E36"/>
</svg>
