<svg width="31" height="26" viewBox="0 0 31 26" fill="none" xmlns="http://www.w3.org/2000/svg">
<path opacity="0.4" fill-rule="evenodd" clip-rule="evenodd" d="M14.213 25.989H13.8857C12.964 26.0043 12.0685 25.682 11.3681 25.0827L5.07411 19.7328C4.54575 19.2809 4.48375 18.4863 4.93564 17.9579C5.38753 17.4296 6.18218 17.3676 6.71054 17.8195L13.0045 23.1819C13.2325 23.3769 13.5227 23.4841 13.8227 23.484H14.213C14.9082 23.484 15.4718 22.9205 15.4718 22.2252V4.6021C15.4718 3.90689 14.9082 3.34331 14.213 3.34331H14.0116C13.6708 3.34132 13.3438 3.47757 13.1052 3.72094L6.94972 10.0149L6.77348 10.166C6.13449 10.6231 5.36883 10.8695 4.58318 10.8709H4.1426C3.44739 10.8709 2.8838 11.4345 2.8838 12.1297V18.4237C2.8838 19.1189 2.32022 19.6825 1.62501 19.6825C0.929793 19.6825 0.366211 19.1189 0.366211 18.4237V12.1297C0.366211 10.0441 2.05696 8.35331 4.1426 8.35331H4.59577C4.82597 8.35553 5.05237 8.29458 5.25034 8.17708L11.3177 1.94604C12.0282 1.21444 13.0043 0.80128 14.0241 0.800537H14.213C16.2986 0.800537 17.9894 2.49128 17.9894 4.57693V22.2001C17.9927 23.2038 17.5963 24.1676 16.8877 24.8785C16.1792 25.5895 15.2167 25.9891 14.213 25.989ZM22.3948 18.2726C24.135 17.2706 25.2074 15.4154 25.2074 13.4074C25.2074 11.3993 24.135 9.54417 22.3948 8.54212C22.0046 8.29406 21.5098 8.2799 21.106 8.50524C20.7023 8.73058 20.4546 9.15913 20.4608 9.62147C20.4671 10.0838 20.7263 10.5055 21.136 10.7198C22.0998 11.2715 22.6943 12.2969 22.6943 13.4074C22.6943 14.5178 22.0998 15.5433 21.136 16.0949C20.6373 16.3775 20.3925 16.9614 20.5405 17.5152C20.6886 18.069 21.1922 18.4529 21.7654 18.4488C21.9871 18.4465 22.2042 18.3857 22.3948 18.2726ZM26.3359 22.3008C29.019 20.1308 30.5781 16.8646 30.5781 13.4137C30.5781 9.96285 29.019 6.69669 26.3359 4.52663C25.7949 4.12988 25.0378 4.2271 24.6146 4.74767C24.1915 5.26824 24.2509 6.02922 24.7498 6.47776C26.8374 8.16998 28.05 10.7138 28.05 13.4011C28.05 16.0885 26.8374 18.6323 24.7498 20.3245C24.2509 20.7731 24.1915 21.534 24.6146 22.0546C25.0378 22.5752 25.7949 22.6724 26.3359 22.2757V22.3008Z" fill="#0F1E36"/>
</svg>
