<svg width="42" height="42" viewBox="0 0 42 42" fill="none" xmlns="http://www.w3.org/2000/svg">
<path fill-rule="evenodd" clip-rule="evenodd" d="M10.5 17.5C8.575 17.5 7 19.075 7 21C7 22.925 8.575 24.5 10.5 24.5C12.425 24.5 14 22.925 14 21C14 19.075 12.425 17.5 10.5 17.5ZM31.5 17.5C29.575 17.5 28 19.075 28 21C28 22.925 29.575 24.5 31.5 24.5C33.425 24.5 35 22.925 35 21C35 19.075 33.425 17.5 31.5 17.5ZM21 17.5C19.075 17.5 17.5 19.075 17.5 21C17.5 22.925 19.075 24.5 21 24.5C22.925 24.5 24.5 22.925 24.5 21C24.5 19.075 22.925 17.5 21 17.5Z" fill="white"/>
<mask id="mask0" mask-type="alpha" maskUnits="userSpaceOnUse" x="7" y="17" width="28" height="8">
<path fill-rule="evenodd" clip-rule="evenodd" d="M10.5 17.5C8.575 17.5 7 19.075 7 21C7 22.925 8.575 24.5 10.5 24.5C12.425 24.5 14 22.925 14 21C14 19.075 12.425 17.5 10.5 17.5ZM31.5 17.5C29.575 17.5 28 19.075 28 21C28 22.925 29.575 24.5 31.5 24.5C33.425 24.5 35 22.925 35 21C35 19.075 33.425 17.5 31.5 17.5ZM21 17.5C19.075 17.5 17.5 19.075 17.5 21C17.5 22.925 19.075 24.5 21 24.5C22.925 24.5 24.5 22.925 24.5 21C24.5 19.075 22.925 17.5 21 17.5Z" fill="white"/>
</mask>
<g mask="url(#mask0)">
</g>
</svg>
