<svg width="30" height="18" viewBox="0 0 30 18" fill="none" xmlns="http://www.w3.org/2000/svg">
<path opacity="0.4" d="M6.88031 2.99615L7.81032 3.3637L7.82059 3.33769L7.8294 3.31115L6.88031 2.99615ZM5.57087 3.8211L5.64086 2.82355L5.60591 2.8211H5.57087V3.8211ZM13.1008 3.82111L13.0308 4.81865L13.0657 4.82111H13.1008V3.82111ZM11.7913 4.64606L10.8613 4.27851L10.8511 4.30452L10.8422 4.33106L11.7913 4.64606ZM22.2659 13.4718L21.3168 13.7868L21.3256 13.8133L21.3359 13.8393L22.2659 13.4718ZM23.5753 14.2967V13.2967H23.5403L23.5053 13.2992L23.5753 14.2967ZM17.3559 15.1217L18.305 14.8067L18.2961 14.7801L18.2859 14.7541L17.3559 15.1217ZM16.0464 14.2967V15.2967H16.0815L16.1164 15.2943L16.0464 14.2967ZM9.36916 0.202211C7.80855 0.200794 6.42281 1.19998 5.93122 2.68115L7.8294 3.31115C8.04931 2.64856 8.66922 2.20158 9.36735 2.20221L9.36916 0.202211ZM5.95031 2.6286C5.90071 2.75411 5.77549 2.833 5.64086 2.82355L5.50087 4.81865C6.50559 4.88914 7.44013 4.30039 7.81032 3.3637L5.95031 2.6286ZM5.57087 2.8211H0.202148V4.8211H5.57087V2.8211ZM29.0105 2.82111H13.1008V4.82111H29.0105V2.82111ZM13.1708 2.82356C12.1661 2.75306 11.2315 3.34182 10.8613 4.27851L12.7213 5.0136C12.7709 4.8881 12.8962 4.80921 13.0308 4.81865L13.1708 2.82356ZM10.8422 4.33106C10.6223 4.99365 10.0024 5.44063 9.3043 5.43999L9.30249 7.43999C10.8631 7.44141 12.2488 6.44222 12.7404 4.96106L10.8422 4.33106ZM19.7788 12.6778C20.477 12.6772 21.0969 13.1242 21.3168 13.7868L23.215 13.1568C22.7234 11.6756 21.3376 10.6764 19.777 10.6778L19.7788 12.6778ZM21.3359 13.8393C21.706 14.776 22.6406 15.3648 23.6453 15.2943L23.5053 13.2992C23.3707 13.3086 23.2455 13.2297 23.1959 13.1042L21.3359 13.8393ZM23.5753 15.2967H29.0095V13.2967H23.5753V15.2967ZM19.8429 15.9156C19.1448 15.9162 18.5249 15.4693 18.305 14.8067L16.4068 15.4367C16.8984 16.9178 18.2841 17.917 19.8447 17.9156L19.8429 15.9156ZM18.2859 14.7541C17.9157 13.8174 16.9811 13.2287 15.9764 13.2992L16.1164 15.2943C16.251 15.2848 16.3763 15.3637 16.4259 15.4892L18.2859 14.7541ZM16.0464 13.2967H0.202148V15.2967H16.0464V13.2967Z" fill="#0F1E36"/>
</svg>
