<svg width="21" height="28" viewBox="0 0 21 28" fill="none" xmlns="http://www.w3.org/2000/svg">
<path fill-rule="evenodd" clip-rule="evenodd" d="M6.88889 27.6222H5.74074C5.10664 27.6222 4.59259 27.1082 4.59259 26.4741C4.59259 25.84 5.10664 25.3259 5.74074 25.3259V2.36295H2.2963V26.4741C2.2963 27.1082 1.78225 27.6222 1.14815 27.6222C0.514043 27.6222 0 27.1082 0 26.4741V1.2148C0 0.580694 0.514043 0.0666504 1.14815 0.0666504H6.88889C7.52299 0.0666504 8.03704 0.580694 8.03704 1.2148V26.4741C8.03704 27.1082 7.52299 27.6222 6.88889 27.6222ZM20.6671 26.4741V1.2148C20.6671 0.580694 20.1531 0.0666504 19.519 0.0666504C18.8849 0.0666504 18.3708 0.580694 18.3708 1.2148V25.3259H14.9264V2.36295C15.5605 2.36295 16.0745 1.8489 16.0745 1.2148C16.0745 0.580694 15.5605 0.0666504 14.9264 0.0666504H13.7782C13.1441 0.0666504 12.6301 0.580694 12.6301 1.2148V26.4741C12.6301 27.1082 13.1441 27.6222 13.7782 27.6222H19.519C20.1531 27.6222 20.6671 27.1082 20.6671 26.4741Z" fill="white"/>
</svg>
